<?xml version="1.0" encoding="UTF-8"?>
<svg width="24px" height="24px" viewBox="0 0 24 24" version="1.1" xmlns="http://www.w3.org/2000/svg" xmlns:xlink="http://www.w3.org/1999/xlink">
    <!-- Generator: Sketch 63.1 (92452) - https://sketch.com -->
    <title>MICHELIN / Icons / Assiette</title>
    <desc>Created with Sketch.</desc>
    <g id="MICHELIN-/-Icons-/-Assiette" stroke="none" stroke-width="1" fill="none" fill-rule="evenodd">
        <path d="M6.13371648,4.25 C6.59051724,4.25 8.05708812,6.22054264 8.05708812,8.07093023 C8.05708812,9.94534884 6.5664751,10.377907 6.5664751,13.3096899 C6.5664751,15.3042636 7.23965517,17.0585271 7.23965517,18.0197674 C7.23965517,19.0290698 6.92710728,19.75 6.30201149,19.75 C5.67691571,19.75 5.36436782,19.0290698 5.36436782,18.0197674 C5.36436782,16.601938 5.77308429,14.0546512 5.77308429,12.3244186 L5.77308429,12.3244186 L5.77308429,5.7879845 C5.77308429,4.94689922 5.84521073,4.25 6.13371648,4.25 Z M15.2216475,5.28333333 C19.2126437,5.28333333 22.4583333,8.52751938 22.4583333,12.4926357 C22.4583333,16.4817829 19.2126437,19.75 15.2216475,19.75 C11.2546935,19.75 7.98496169,16.4817829 7.98496169,12.4926357 C7.98496169,8.52751938 11.2546935,5.28333333 15.2216475,5.28333333 Z M4.49885057,5.30736434 C4.59501916,5.30736434 4.6190613,5.4996124 4.66714559,5.66782946 C4.76331418,6.50891473 4.83544061,7.47015504 4.83544061,8.21511628 C4.83544061,10.353876 3.51312261,10.0655039 3.51312261,12.3003876 C3.51312261,15.2562016 4.13821839,17.0104651 4.13821839,18.0197674 C4.13821839,19.0290698 3.8256705,19.75 3.20057471,19.75 C2.57547893,19.75 2.26293103,19.0290698 2.26293103,18.0197674 C2.26293103,17.0104651 2.83994253,15.2562016 2.83994253,12.3003876 C2.83994253,10.0655039 1.54166667,10.353876 1.54166667,8.21511628 C1.54166667,7.47015504 1.6137931,6.50891473 1.73400383,5.66782946 C1.78208812,5.4996124 1.80613027,5.30736434 1.90229885,5.30736434 C2.02250958,5.30736434 1.99846743,5.52364341 1.99846743,5.66782946 L1.99846743,5.66782946 L2.07059387,8.16705426 C2.09463602,9.03217054 2.14272031,9.32054264 2.52739464,9.32054264 C2.88802682,9.32054264 2.96015326,9.03217054 2.9841954,8.16705426 L2.9841954,8.16705426 L3.05632184,5.7879845 C3.05632184,5.57170543 3.05632184,5.30736434 3.20057471,5.30736434 C3.34482759,5.30736434 3.34482759,5.57170543 3.36886973,5.7879845 L3.36886973,5.7879845 L3.39291188,8.16705426 C3.39291188,9.03217054 3.51312261,9.32054264 3.84971264,9.32054264 C4.21034483,9.32054264 4.28247126,9.03217054 4.30651341,8.16705426 L4.30651341,8.16705426 L4.37863985,5.66782946 C4.37863985,5.52364341 4.37863985,5.30736434 4.49885057,5.30736434 Z M15.2216475,6.31666667 C11.831705,6.31666667 9.01877395,9.10426357 9.01877395,12.4926357 C9.01877395,15.9050388 11.831705,18.6686047 15.2216475,18.6686047 C18.6356322,18.6686047 21.4004789,15.9050388 21.4004789,12.4926357 C21.4004789,9.10426357 18.6356322,6.31666667 15.2216475,6.31666667 Z" id="MICHELIN-Plate" fill="#BD2333" fill-rule="nonzero"></path>
    </g>
</svg>